# xmcd
#
# Track frame offsets: 
#        150
#        18017
#        32046
#        56345
#        72140
#        99317
#        114645
#        134861
#        152335
#        180559
#        204063
#        228463
#
# Disc length: 3304 seconds
#
# Revision: 0
# Processed by: cddbd v1.5.2PL0 Copyright (c) Steve Scherf et al.
# Submitted via: ExactAudioCopy v0.99pb5
#
DISCID=900ce60c
DTITLE=Czysta Woda - Czysta woda
DYEAR=2010
DGENRE=Southern Rock
TTITLE0=Czysta Woda - Na wirazu II
TTITLE1=Czysta Woda - Smierc kliniczna
TTITLE2=Czysta Woda - Pociag do bluesa
TTITLE3=Czysta Woda - Jeden na tysiac
TTITLE4=Czysta Woda - Dopoki serce
TTITLE5=Czysta Woda - Klodnica
TTITLE6=Czysta Woda - Wiele trudnych pytan
TTITLE7=Czysta Woda - Nie, nie jestem sam
TTITLE8=Czysta Woda - W ciszy scian
TTITLE9=Czysta Woda - List do R.
TTITLE10=Czysta Woda - Dokad idzie czlowiek
TTITLE11=Czysta Woda - W droge czas
EXTD=
EXTT0=
EXTT1=
EXTT2=
EXTT3=
EXTT4=
EXTT5=
EXTT6=
EXTT7=
EXTT8=
EXTT9=
EXTT10=
EXTT11=
PLAYORDER=
